<?xml version="1.0" encoding="utf-8"?>
<!DOCTYPE svg PUBLIC "-//W3C//DTD SVG 1.1//EN" "http://www.w3.org/Graphics/SVG/1.1/DTD/svg11.dtd">
<svg version="1.1" xmlns="http://www.w3.org/2000/svg" width="533px" height="534px" viewBox="0 0 533 534" preserveAspectRatio="xMidYMid meet">
 <g fill="#72aec0" fill-rule="evenodd">
  <path d="M62 265 L83.8 265C101.8 265 105.9 264.7 106.9 263.5 C107.9 262.3 107.7 261.4 106 259.1 C104.9 257.5 102.8 253.7 101.5 250.8 C100.1 247.9 99 244.3 99 242.8 C99 241.3 100.1 237.8 101.6 235 C103.3 231.7 105.8 228.9 108.8 227 C112.5 224.5 114.3 224 119.2 224 C122.4 224 126.3 224.6 127.9 225.4 C129.4 226.2 132.1 228.4 133.8 230.4 C135.5 232.3 137.4 235.8 138 238 C138.6 240.2 138.8 244 138.4 246.5 C138 248.9 136.2 253.2 134.3 256.1 C132.5 259 131 261.7 131 262 C131 262.4 131.6 263.2 132.3 263.8 C133.2 264.6 140.5 265 154.3 265 L175 265L175 265 L176.4 275.7C177.2 281.6 178.3 288.3 178.8 290.5 C179.4 292.7 181.2 297.7 182.8 301.7 C184.5 305.7 186.6 310.4 187.6 312.2 C188.6 314 189.7 315.7 190 316 C190.3 316.2 191.4 317.9 192.4 319.6 C193.5 321.4 198.2 326.6 202.9 331.2 C207.6 335.8 213.9 341.2 217 343.1 C220 345.1 224.7 347.9 227.5 349.3 C230.2 350.7 234.5 352.6 237 353.5 C239.4 354.4 243.3 355.6 245.5 356.1 C247.7 356.7 253.3 357.4 258 357.9 C262.6 358.3 266.6 358.7 266.7 358.8 L267 359L267 359 L266.9 379.2C266.9 394.5 266.6 399.9 265.6 401.2 C264.8 402.2 263.6 403 262.8 403 C262 403 260.9 402.5 260.4 402 C259.9 401.5 257.4 400 255 398.7 C252.5 397.3 249 395.9 247.3 395.5 C245.5 395.1 242.4 395.3 240.2 395.9 C238.1 396.5 236 397.2 235.6 397.4 L235 398L234.5 398.5 L234 399 L233.3 399C233 399 231.3 400.5 229.6 402.4 C227.8 404.3 225.9 407.9 225.2 410.3 C224.2 414 224.3 415.7 225.5 419.9 C226.5 423.2 228.5 426.5 231.2 429.4 C234.7 433 236.3 433.9 240.3 434.5 C243.3 434.9 246.7 434.7 249.3 434 C251.5 433.3 254.9 431.7 256.9 430.3 C258.8 429 261.3 428 262.5 428 C263.6 428 265.1 428.5 265.7 429.1 C266.6 430 267 439.1 267 463.6 C267 482 267 497.4 267 498 L267 499L267 499 L266.5 499C266.3 499 266 499.3 265.8 499.8 C265.6 500.3 262.9 500.5 259.8 500.2 L254.2 499.7 253.5 493.9 C253.2 490.8 252 486.4 251 484.3 C250 482.2 247.7 479 246 477.3 C244.2 475.5 240.8 473.1 238.2 471.8 C235.7 470.6 231.5 469.4 228.9 469.2 C226 468.9 222.2 469.4 219.1 470.4 C216.4 471.3 212 473.9 209.5 476.1 C206.8 478.5 203.9 482.3 202.7 485.1 C201.5 487.8 200 490 199.3 490 C198.5 490 195.1 489 191.7 487.9 C188.3 486.7 184.6 485.4 183.5 485 C182.4 484.6 180.2 483.7 178.6 483 C175.9 482 175.8 481.6 176.5 478.2 C177 476.1 177.4 471.5 177.4 468 C177.4 462.9 176.9 460.3 175 456.6 C173.6 454 170.9 450.3 168.9 448.5 C166.9 446.7 162.7 444.2 159.5 443.1 C156.4 441.9 152.5 441 150.9 441 C149.3 441 145.1 442.1 141.7 443.5 C138 445 134 447.6 131.7 450 C129.6 452.2 127.5 454 127 454 C126.5 454 126 453.6 125.8 453.2 C125.6 452.8 123.4 450.9 121 448.9 C118.5 447 114.5 443.7 112.2 441.5 C109.9 439.3 108 437 107.9 436.3 C107.9 435.7 108.6 434.7 109.4 434 C110.1 433.4 111.9 430.5 113.4 427.6 C115.2 423.8 116 420.6 116 416.7 C116 413.4 115.2 409.4 113.9 406.6 C112.8 404.1 110.7 400.6 109.3 398.9 C107.8 397.2 105 394.8 103 393.5 C101.1 392.3 97.2 390.7 94.5 390.1 C90.7 389.1 88.5 389.1 84.5 390 C81.7 390.7 77.9 392.1 76.1 393.2 L72.7 395.3 70.8 392.9 C69.8 391.5 67.5 388 65.8 385 C64.1 381.9 61.8 378 60.8 376.2 C59.8 374.4 59 372.5 58.9 372 C58.9 371.5 59.8 370.8 60.8 370.5 C61.8 370.2 64.6 368.1 66.9 365.9 C69.5 363.4 72.1 359.6 73.5 355.9 C74.9 352.7 76 348.4 76 346.5 C76 344.6 75.2 341.1 74.3 338.7 C73.4 336.4 71.4 332.7 69.8 330.6 C68.3 328.5 65.4 325.6 63.4 324.2 C61.3 322.8 57.4 321.1 54.6 320.3 C51.8 319.6 48.1 319.2 46.5 319.5 C44.8 319.8 42.7 320.3 41.8 320.6 C40.5 320.9 39.9 319.9 39 315.7 C38.5 312.8 37.5 308.1 37 305.2 C36.4 302.2 35.9 298.5 35.9 296.9 C36 294.2 36.3 293.9 40.1 293.3 C42.3 293 46.2 291.3 48.8 289.6 C51.4 287.8 55.1 284 57.1 281 C59.9 276.9 60.9 274.2 61.2 270.5 C61.4 267.7 61.7 265.3 61.8 265.2 L62 265"/>
 </g>
 <g fill="#706c7a" fill-rule="evenodd">
  <path d="M62 265 L61.8 264.7C61.8 264.6 61.4 262.9 61 261 C60.6 259 59.6 256.1 58.7 254.5 C57.9 252.8 56.1 250.3 54.8 248.9 C53.5 247.5 50.9 245.2 48.9 243.8 C47 242.4 43.5 240.9 41.1 240.5 C38.7 240.1 36.6 239.1 36.2 238.2 C35.9 237.4 36.2 233 36.9 228.6 C37.6 224.1 38.6 218.8 39.2 216.8 L40.2 213.2 47.8 213.3 C53.4 213.4 56.5 212.9 59.4 211.6 C61.5 210.5 65.4 207.6 67.9 205.1 C70.7 202.2 73.1 198.5 74.2 195.5 C75.2 192.7 76 188.5 76 186.2 C76 183.7 74.9 179.7 73.3 176.4 C71.8 173.3 69 169.5 67.1 167.9 C65.1 166.3 62.4 164.2 61.1 163.2 L58.7 161.4 61 157.4 C62.2 155.2 65 150.3 67.2 146.5 C69.4 142.6 71.4 139.3 71.6 139 C71.8 138.8 74.3 139.7 77.1 141 C80.9 142.8 84 143.4 88.9 143.4 C92.5 143.4 96.6 143.1 98.1 142.7 C99.6 142.3 103 140.2 105.7 138.1 C109 135.4 111.5 132.3 113.3 128.5 C115.3 124.3 116 121.3 116 116.8 C116 111.9 115.3 109.6 112.8 104.8 C111.1 101.6 109.3 98.9 108.8 98.9 C108.3 99 108 98.3 108 97.6 C108 96.8 110.3 94.1 113.2 91.6 C116.1 89.1 119.6 86 121 84.9 C122.3 83.7 124.5 82 125.8 81.2 C128 79.7 128.3 79.8 131.1 82.8 C132.8 84.6 136 87.3 138.2 88.7 C141.9 91.2 143.2 91.4 150.9 91.4 C157.8 91.4 160.2 91 163.6 89.2 C165.9 88 169.5 85 171.6 82.5 C173.6 80.1 175.9 76.1 176.7 73.8 C177.7 71 178 67.5 177.6 63.5 C177.3 60.2 176.8 56.2 176.4 54.7 C175.9 52.6 176.1 51.9 177.6 51.4 C178.6 51.1 180.2 50.4 181.2 49.9 C182.2 49.4 186.3 47.8 190.3 46.5 C194.4 45.1 198.3 43.7 199.2 43.4 C200.2 43 201.1 44.1 202.4 47.3 C203.3 49.8 205.7 53.6 207.8 55.7 C209.8 57.8 212.6 60.2 214 61.1 C215.4 62 219.1 63.3 222.2 64 C226.8 65 228.7 65 232.6 63.9 C235.3 63.2 238.6 62.1 240 61.3 C241.5 60.6 244.3 58.4 246.2 56.5 C248.2 54.5 250.6 51.4 251.5 49.6 C252.4 47.9 253.4 43.7 253.7 40.3 C254.1 35.1 254.5 34 256.3 33.5 C257.5 33.2 260.8 33 263.7 33 C266.6 33 269 33.2 269 33.5 L269 34L269 34 L269 68.3C269 96.1 269.2 102.9 270.4 104.5 C271.7 106.3 271.9 106.4 275.1 104.6 C276.9 103.7 280.5 101.8 283 100.4 C285.4 99.1 289 98 291 98 C292.9 98 296.3 98.8 298.5 99.8 C300.7 100.8 303.9 103.3 305.7 105.3 C307.4 107.3 309.4 110.8 310 113.1 C310.6 115.4 310.8 118.9 310.4 120.9 C310.1 122.8 308.8 126.2 307.7 128.2 C306.5 130.3 303.5 133.4 301.1 135 C297.9 137.1 295.4 138 292.4 138 C290.1 138 286.7 137.4 284.8 136.8 C283 136.1 280.1 134.6 278.4 133.3 C276.7 132 274.3 131 273.2 131 C272.1 131 270.7 131.6 270.1 132.3 C269.3 133.2 269 140.5 269 154.3 L269 175L269 175 L260.2 175.5C255.4 175.8 249 176.8 246 177.6 C242.9 178.5 238.4 179.9 236 180.8 C233.5 181.7 229.2 183.6 226.5 185.1 C223.7 186.6 219.9 188.7 218 189.8 C216 190.9 212 193.9 208.9 196.6 C205.9 199.3 201.6 203.5 199.4 206 C197.2 208.4 195.1 210.6 194.7 210.8 C194.3 211 194 211.8 194 212.5 C194 213.3 193.6 214 193.2 214 C192.8 214 191.6 215.4 190.6 217.2 C189.5 219 187.8 222 186.7 224 C185.6 225.9 183.6 230.4 182.2 234 C180.8 237.5 179.1 242.9 178.4 246 C177.6 249 177 253.1 177 255.1 C177 257.1 176.7 260.1 176.3 261.8 C176 263.5 175.5 265 175.3 265 L175 265L175 265 L154.3 265C140.5 265 133.2 264.6 132.3 263.8 C131.6 263.2 131 262.4 131 262 C131 261.7 132.5 259 134.3 256.1 C136.2 253.2 138 248.9 138.4 246.5 C138.8 244 138.6 240.2 138 238 C137.4 235.8 135.5 232.3 133.8 230.4 C132.1 228.4 129.4 226.2 127.9 225.4 C126.3 224.6 122.4 224 119.2 224 C114.3 224 112.5 224.5 108.8 227 C105.8 228.9 103.3 231.7 101.6 235 C100.1 237.8 99 241.3 99 242.8 C99 244.3 100.1 247.9 101.5 250.8 C102.8 253.7 104.9 257.5 106 259.1 C107.7 261.4 107.9 262.3 106.9 263.5 C105.9 264.7 101.8 265 83.8 265 L62 265"/>
 </g>
 <g fill="#eaa258" fill-rule="evenodd">
  <path d="M267 499 L267 498C267 497.4 267 482 267 463.6 C267 439.1 266.6 430 265.7 429.1 C265.1 428.5 263.6 428 262.5 428 C261.3 428 258.8 429 256.9 430.3 C254.9 431.7 251.5 433.3 249.3 434 C246.7 434.7 243.3 434.9 240.3 434.5 C236.3 433.9 234.7 433 231.2 429.4 C228.5 426.5 226.5 423.2 225.5 419.9 C224.3 415.7 224.2 414 225.2 410.3 C225.9 407.9 227.8 404.3 229.6 402.4 C231.3 400.5 233 399 233.3 399 L234 399L234.5 398.5 L235 398 L235.6 397.4C236 397.2 238.1 396.5 240.2 395.9 C242.4 395.3 245.5 395.1 247.3 395.5 C249 395.9 252.5 397.3 255 398.7 C257.4 400 259.9 401.5 260.4 402 C260.9 402.5 262 403 262.8 403 C263.6 403 264.8 402.2 265.6 401.2 C266.6 399.9 266.9 394.5 266.9 379.2 L267 359L267 359 L267 358.5C267 358.2 269.8 358 273.2 358 C276.6 358 282.4 357.3 286 356.5 C289.5 355.7 295.4 354 299 352.6 C302.5 351.3 307.5 349.1 310 347.8 C312.4 346.5 316.7 343.9 319.5 342 C322.2 340.2 328.1 335 332.5 330.5 C336.9 326 342.5 319 345 314.9 C347.5 310.8 350.3 305.4 351.3 303 C352.4 300.5 353.5 297.6 354 296.5 C354.4 295.4 355.4 291.8 356.3 288.5 C357.1 285.2 358 279.2 358.4 275.2 L359 268L359 268 L380.3 268C395.5 268 401.9 268.3 402.8 269.2 C403.4 269.8 404 271 404 271.7 C404 272.5 402.9 274.5 401.6 276.3 C400.2 278 398.3 281.8 397.3 284.7 C395.6 289.7 395.6 290 397.4 295.5 C398.8 299.5 400.5 302.1 403.3 304.5 C405.5 306.4 407.7 308 408.1 308 C408.6 308 409.2 308 409.5 308 L410 308L410.5 308.5 L411 309 L411.7 309.1C412.1 309.2 414.5 309.3 417 309.3 C419.4 309.3 422.9 308.5 424.7 307.6 C426.5 306.7 429.5 304.4 431.4 302.4 C433.3 300.5 435.4 297.2 436 295 C437 291.7 436.9 290.2 435.5 285.8 C434.5 282.8 432.4 278.4 430.7 276 C428.5 272.7 428 271.1 428.7 270 C429.5 268.7 433.1 268.4 451.3 268.2 L473 268L473 268 L473.1 268.2C473.1 268.3 473.5 270 473.9 272 C474.3 273.9 475.2 276.7 475.8 278.2 C476.4 279.7 478.8 282.9 481.2 285.3 C483.6 287.7 487.1 290.4 488.9 291.3 C490.7 292.2 493.8 292.9 495.6 293 C498.8 293 499 293.1 499 296.5 C499 298.5 498.3 303.1 497.5 306.8 C496.7 310.4 495.8 315.2 495.5 317.3 C495 320.4 494.5 321 493.1 320.4 C492.2 320.1 490 319.5 488.3 319.3 C486.6 319 482.8 319.5 479.8 320.3 C476.9 321.2 472.7 323.2 470.5 324.8 C468.3 326.3 465.3 329.3 463.9 331.5 C462.5 333.7 460.8 337.1 460.2 339 C459.5 341 459 344.2 459 346.1 C459 348.1 459.4 351.2 460 353.1 C460.6 354.9 461.8 357.8 462.7 359.5 C463.6 361.1 466.1 364.1 468.3 366.2 C470.4 368.2 473.1 370.2 474.1 370.5 C475.1 370.8 476 371.5 476 372 C475.9 372.6 474.8 374.8 473.5 377 C472.1 379.1 471 381.1 471 381.4 C471 381.6 469.1 384.8 466.8 388.4 C464.6 392 462.5 395 462.2 395 C461.9 395 460.3 394.1 458.5 393 C456.8 391.9 453.2 390.6 450.5 390 C446.8 389.1 444.3 389.2 440.5 390.1 C437.7 390.7 433.5 392.5 431.2 393.9 C428.9 395.4 425.8 398.1 424.4 400 C423 401.9 421.2 405 420.4 406.8 C419.6 408.7 419 413 419 416.3 C419.1 419.7 419.6 423.8 420.3 425.5 C420.9 427.1 422.8 430.4 424.3 432.7 L427.2 437 423.2 440.7 C420.9 442.8 418 445.3 416.8 446.4 C415.5 447.5 412.7 449.7 410.6 451.3 L406.8 454.1 402.8 449.9 C400.4 447.4 396.5 444.8 392.9 443.4 C389.7 442 385.6 441 384 441 C382.4 441 378.9 441.7 376.2 442.6 C373.6 443.5 369.8 445.3 367.9 446.8 C365.9 448.2 363.2 450.9 361.8 452.9 C360.4 454.8 358.5 459.1 357.5 462.3 C356 467.1 355.9 468.7 356.9 472.3 C357.6 474.6 358.3 477.6 358.6 479 C359 480.9 358.6 481.8 356.8 482.7 C355.5 483.3 351.8 484.8 348.5 486 C345.2 487.1 340.9 488.5 339.1 489.1 C337.3 489.6 335.1 489.9 334.4 489.6 C333.6 489.3 333 488.3 333 487.4 C333 486.5 331.6 483.8 329.9 481.4 C328.3 479 325.4 475.9 323.6 474.5 C321.8 473.1 318.4 471.3 316 470.5 C313.6 469.6 309.8 469 307.6 469 C305.3 469 301.7 469.6 299.7 470.3 C297.6 471 295.4 472.1 294.7 472.8 C294.1 473.4 293.2 474 292.7 474 C292.2 474 290.2 475.6 288.3 477.7 C286.4 479.7 283.9 483.3 282.9 485.6 C281.8 488 281 492 281 494.8 L281 499.7 274.2 500.2 C270.5 500.4 267.3 500.6 267.2 500.5 C267.1 500.4 267 500 267 499.6 L267 499"/>
 </g>
 <g fill="#cd5252" fill-rule="evenodd">
  <path d="M410.5 308.5 L410 308 L409.5 308C409.2 308 408.6 308 408.1 308 C407.7 308 405.5 306.4 403.3 304.5 C400.5 302.1 398.8 299.5 397.4 295.5 C395.6 290 395.6 289.7 397.3 284.7 C398.3 281.8 400.2 278 401.6 276.3 C402.9 274.5 404 272.5 404 271.7 C404 271 403.4 269.8 402.8 269.2 C401.9 268.3 395.5 268 380.3 268 L359 268L359 268 L359 267.5C359 267.2 358.9 265.3 358.9 263.2 C358.9 261.1 358.5 256.7 358 253.2 C357.5 249.8 356.1 243.7 354.9 239.7 C353.6 235.7 350.9 229.1 348.7 225 C346.6 220.9 343.1 215.3 340.9 212.5 C338.8 209.7 335.6 205.8 333.7 203.9 C331.9 201.9 328 198.2 325 195.7 C321.9 193.2 318.1 190.5 316.5 189.6 C314.8 188.6 312.1 187.1 310.5 186.1 C308.8 185.1 305 183.3 302.1 182.1 C299.1 180.8 293.5 179 289.6 178 C285.7 177 279.4 175.9 275.7 175.6 L269 175L269 175 L269 154.3C269 140.5 269.3 133.2 270.1 132.3 C270.7 131.6 272.1 131 273.2 131 C274.3 131 276.7 132 278.4 133.3 C280.1 134.6 283 136.1 284.8 136.8 C286.7 137.4 290.1 138 292.4 138 C295.4 138 297.9 137.1 301.1 135 C303.5 133.4 306.5 130.3 307.7 128.2 C308.8 126.2 310.1 122.8 310.4 120.9 C310.8 118.9 310.6 115.4 310 113.1 C309.4 110.8 307.4 107.3 305.7 105.3 C303.9 103.3 300.7 100.8 298.5 99.8 C296.3 98.8 292.9 98 291 98 C289 98 285.4 99.1 283 100.4 C280.5 101.8 276.9 103.7 275.1 104.6 C271.9 106.4 271.7 106.3 270.4 104.5 C269.2 102.9 269 96.1 269 68.3 L269 34L269 34 L269.6 33.4C270 33.2 271.7 33 273.4 33 C275.1 33 277.5 33.2 278.7 33.6 C280.6 34.1 281 34.9 281 38.3 C281 40.6 281.9 44.4 282.8 46.8 C283.8 49.2 285.8 52.7 287.3 54.6 C288.8 56.5 291.7 59 293.8 60.3 C295.8 61.5 299.3 63.1 301.6 63.8 C303.8 64.4 306.7 64.9 307.9 65 C309.1 65 312.7 64.2 315.8 63.3 C320.2 62.1 322.6 60.6 326.6 56.4 C329.8 53.2 332.3 49.6 333 47 C333.7 44.8 334.3 43 334.4 43 C334.4 43 338.7 44.5 344 46.3 C349.2 48.2 354.9 50.3 356.7 50.9 C359.5 52 359.9 52.5 359.3 54.8 C358.9 56.3 358.3 58.5 357.8 59.8 C357.3 61 357 63.6 357 65.4 C356.9 67.2 357.4 70.2 358 72.1 C358.6 73.9 359.6 76.6 360.3 77.9 C360.9 79.3 362.1 81.3 363 82.3 C363.8 83.3 366.4 85.5 368.7 87.1 C371.1 88.7 375.3 90.8 378.2 91.6 C382.6 92.9 384.2 93 388.9 91.9 C392 91.2 396 89.4 398 88.1 C399.9 86.7 402.7 84.2 404.1 82.6 C406.7 79.8 406.9 79.7 409.1 81.2 C410.4 82 412.6 83.7 414 84.9 C415.3 86 418.8 89.1 421.7 91.6 C424.6 94.1 427 96.6 427 97.1 C427 97.7 425.9 99.5 424.5 101.3 C423.2 103 421.4 106.2 420.5 108.3 C419.7 110.5 419 114.3 419 116.9 C419 119.5 419.7 123.8 420.6 126.4 C421.6 129.2 424.1 133.1 426.8 136 C430.1 139.4 433 141.3 436.8 142.5 C440.7 143.8 443.8 144.1 448.6 143.6 C452.5 143.3 456.6 142.2 458.6 141 C460.5 139.8 462.5 139.1 462.9 139.4 C463.3 139.7 465.5 143 467.7 146.7 C469.9 150.4 472.7 155.4 473.9 157.8 C475.1 160.2 475.9 162.2 475.8 162.4 C475.6 162.5 473.9 163.6 471.9 164.7 C470 165.9 467.5 167.9 466.4 169.1 C465.3 170.4 463.7 172.6 462.9 174 C462 175.3 460.7 178.6 460 181.2 C459.3 183.8 458.9 187.7 459.2 189.9 C459.5 192.1 460.8 196 462 198.5 C463.2 201.1 465.8 204.7 467.6 206.5 C469.5 208.4 472.4 210.7 474.2 211.6 C476.5 212.9 479.9 213.4 486.2 213.4 L495 213.5 495.5 217 C495.8 218.9 496.7 223.5 497.5 227.1 C498.3 230.8 499 235.2 499 236.9 C499 239.5 498.6 239.9 495.2 240.5 C493.1 240.9 489.6 242.3 487.2 243.7 C484.9 245 481.6 247.7 479.9 249.6 C478.2 251.6 476.3 254.4 475.7 255.8 C475.2 257.3 474.3 260.5 473.9 263 C473.4 265.4 473 267.6 473 267.7 L473 268L473 268 L451.3 268.2C433.1 268.4 429.5 268.7 428.7 270 C428 271.1 428.5 272.7 430.7 276 C432.4 278.4 434.5 282.8 435.5 285.8 C436.9 290.2 437 291.7 436 295 C435.4 297.2 433.3 300.5 431.4 302.4 C429.5 304.4 426.5 306.7 424.7 307.6 C422.9 308.5 419.4 309.3 417 309.3 C414.5 309.3 412.1 309.2 411.7 309.1 L411 309"/>
 </g>
</svg>